<?xml version="1.0" standalone="no"?>
<!DOCTYPE svg PUBLIC "-//W3C//DTD SVG 20010904//EN"
 "http://www.w3.org/TR/2001/REC-SVG-20010904/DTD/svg10.dtd">
<svg version="1.0" xmlns="http://www.w3.org/2000/svg"
 width="256.000000pt" height="256.000000pt" viewBox="0 0 256.000000 256.000000"
 preserveAspectRatio="xMidYMid meet">

<g transform="translate(0.000000,256.000000) scale(0.100000,-0.100000)"
fill="#000000" stroke="none">
<path d="M472 2345 c-50 -22 -159 -130 -212 -211 -117 -178 -138 -389 -65
-667 36 -140 86 -249 228 -496 152 -267 214 -356 322 -466 140 -142 260 -221
405 -266 166 -52 424 -17 522 71 37 33 41 40 41 83 -2 127 -218 438 -316 454
-31 5 -50 -2 -139 -53 -102 -58 -104 -59 -183 -59 -72 0 -86 3 -143 34 -35 19
-78 51 -95 72 -31 36 -269 442 -295 503 -23 52 -26 155 -8 217 22 77 75 134
180 192 95 54 116 76 116 123 0 79 -73 252 -161 379 -70 102 -119 124 -197 90z"/>
<path d="M950 1858 c0 -34 -46 -125 -69 -140 -12 -7 -21 -16 -21 -20 0 -4 144
-120 321 -257 l320 -249 392 305 c417 324 453 355 443 372 -5 8 -204 11 -697
11 l-689 0 0 -22z"/>
<path d="M1947 1415 c-236 -184 -436 -335 -445 -335 -10 0 -179 126 -377 280
-198 154 -363 280 -366 280 -14 0 -74 -47 -93 -73 -17 -23 -21 -43 -21 -100
l0 -72 124 -215 c151 -262 160 -274 221 -305 75 -38 109 -34 222 31 122 69
176 78 256 44 57 -25 165 -130 217 -212 l30 -48 293 0 c326 0 346 3 383 64 18
29 19 59 19 514 0 453 -1 482 -17 482 -10 -1 -211 -151 -446 -335z"/>
</g>
</svg>
