<?xml version="1.0" standalone="no"?>
<!DOCTYPE svg PUBLIC "-//W3C//DTD SVG 20010904//EN"
 "http://www.w3.org/TR/2001/REC-SVG-20010904/DTD/svg10.dtd">
<svg version="1.0" xmlns="http://www.w3.org/2000/svg"
 width="900.000000pt" height="900.000000pt" viewBox="0 0 900.000000 900.000000"
 preserveAspectRatio="xMidYMid meet">

<g transform="translate(0.000000,900.000000) scale(0.100000,-0.100000)"
fill="#000000" stroke="none">
<path d="M5995 8984 c-331 -33 -472 -59 -728 -134 -628 -184 -1154 -552 -1478
-1035 -112 -166 -230 -437 -269 -620 -67 -303 -50 -645 46 -935 146 -440 466
-837 914 -1133 58 -38 107 -71 109 -73 8 -8 -23 -133 -64 -256 -96 -284 -244
-538 -456 -780 -23 -27 -35 -48 -27 -48 7 0 72 7 143 15 673 78 1193 283 1542
609 l63 59 128 -13 c159 -16 510 -17 662 -1 723 76 1372 365 1820 811 594 592
757 1368 440 2091 -259 587 -885 1092 -1623 1308 -334 98 -565 132 -927 136
-140 2 -273 1 -295 -1z m-974 -1754 c226 -42 387 -269 349 -489 -37 -213 -211
-361 -423 -361 -218 0 -390 146 -427 363 -31 175 68 366 232 446 96 47 173 59
269 41z m1290 0 c242 -45 398 -275 348 -512 -28 -129 -117 -241 -239 -301 -62
-30 -71 -32 -180 -32 -108 0 -119 2 -180 31 -121 58 -194 143 -232 268 -71
235 73 483 315 542 66 16 101 17 168 4z m1301 -1 c120 -26 235 -105 292 -203
67 -114 75 -279 20 -396 -45 -94 -110 -162 -201 -207 -65 -32 -86 -37 -162
-41 -145 -7 -244 32 -340 133 -61 65 -98 140 -113 231 -29 175 73 369 236 445
99 47 176 57 268 38z"/>
<path d="M970 6173 c-196 -33 -388 -174 -729 -536 -95 -100 -128 -143 -155
-200 -115 -243 -97 -640 51 -1101 287 -897 990 -1905 1923 -2760 733 -671
1511 -1159 2210 -1384 291 -94 472 -126 715 -127 208 0 279 13 410 75 73 35
98 56 297 252 126 124 242 248 279 298 259 354 204 668 -180 1014 -99 89 -284
228 -402 301 -225 139 -427 200 -583 175 -162 -26 -268 -93 -489 -309 -89 -87
-178 -167 -197 -177 -53 -28 -184 -26 -275 5 -293 100 -670 386 -1199 909
-515 511 -799 858 -942 1157 -81 168 -101 281 -68 380 14 39 47 79 181 217
169 174 246 275 282 373 75 200 37 397 -131 680 -136 229 -365 501 -516 614
-156 117 -331 169 -482 144z m-5 -648 c70 -110 134 -210 142 -221 13 -21 10
-23 -117 -74 -204 -82 -291 -149 -353 -271 -52 -104 -62 -167 -61 -369 0 -149
4 -205 22 -289 12 -58 20 -106 18 -108 -5 -6 -89 132 -129 212 -117 235 -166
464 -138 655 33 221 144 403 368 602 75 66 101 84 109 75 7 -7 69 -102 139
-212z m4465 -4528 c118 -66 217 -121 219 -123 7 -6 -120 -152 -200 -230 -197
-191 -414 -284 -662 -284 -127 0 -234 19 -370 66 -96 34 -323 142 -314 150 2
2 55 -3 118 -12 145 -21 341 -14 450 14 119 32 214 85 289 161 82 84 130 174
203 384 8 21 -19 34 267 -126z"/>
</g>
</svg>
