<?xml version="1.0" standalone="no"?>
<!DOCTYPE svg PUBLIC "-//W3C//DTD SVG 20010904//EN"
 "http://www.w3.org/TR/2001/REC-SVG-20010904/DTD/svg10.dtd">
<svg version="1.0" xmlns="http://www.w3.org/2000/svg"
 width="494.000000pt" height="505.000000pt" viewBox="0 0 494.000000 505.000000"
 preserveAspectRatio="xMidYMid meet">

<g transform="translate(0.000000,505.000000) scale(0.100000,-0.100000)"
fill="#000000" stroke="none">
<path d="M100 4502 c-22 -12 -44 -35 -58 -63 l-22 -44 2 -1882 3 -1882 21 -27
c11 -15 33 -37 48 -48 l27 -21 2354 0 2354 0 27 21 c15 11 37 33 48 48 l21 27
3 1882 2 1882 -22 44 c-14 28 -36 51 -58 63 -33 17 -129 18 -2375 18 -2246 0
-2342 -1 -2375 -18z m4225 -301 c-6 -4 -352 -282 -770 -617 -418 -335 -831
-666 -918 -736 -98 -79 -164 -125 -171 -120 -14 8 -1811 1447 -1840 1474 -6 4
827 8 1849 8 1049 0 1855 -4 1850 -9z m-3565 -492 c223 -179 676 -543 1008
-809 332 -267 614 -494 628 -505 34 -27 124 -27 158 0 14 11 473 380 1021 820
548 440 1007 808 1021 818 l24 19 0 -1549 c0 -1454 -1 -1550 -18 -1583 -9 -19
-32 -45 -51 -57 l-34 -23 -2042 0 -2042 0 -34 23 c-19 12 -42 38 -51 57 -17
33 -18 129 -18 1584 0 1237 3 1547 13 1539 6 -6 194 -156 417 -334z"/>
</g>
</svg>
